<?xml version="1.0" encoding="utf-8"?>
<!-- Generator: Adobe Illustrator 15.0.0, SVG Export Plug-In . SVG Version: 6.00 Build 0)  -->
<!DOCTYPE svg PUBLIC "-//W3C//DTD SVG 1.1//EN" "http://www.w3.org/Graphics/SVG/1.1/DTD/svg11.dtd">
<svg version="1.1" id="Capa_1" xmlns="http://www.w3.org/2000/svg" xmlns:xlink="http://www.w3.org/1999/xlink" x="0px" y="0px"
	 width="511.625px" height="511.625px" viewBox="0 0 511.625 511.625" enable-background="new 0 0 511.625 511.625"
	 xml:space="preserve">
<g>
	<g>
		<path fill="#47484A" d="M49.106,178.729c6.472,4.567,25.981,18.131,58.528,40.685c32.548,22.554,57.482,39.92,74.803,52.099
			c1.903,1.335,5.946,4.237,12.131,8.71c6.186,4.477,11.326,8.093,15.416,10.852c4.093,2.758,9.041,5.852,14.849,9.277
			c5.806,3.422,11.279,5.996,16.418,7.699c5.14,1.719,9.898,2.57,14.275,2.57h0.287h0.288c4.377,0,9.137-0.853,14.276-2.57
			c5.138-1.703,10.615-4.28,16.416-7.699c5.805-3.43,10.752-6.52,14.846-9.277c4.093-2.759,9.229-6.375,15.416-10.852
			c6.186-4.477,10.232-7.375,12.137-8.71c17.508-12.179,62.051-43.11,133.613-92.79c13.895-9.703,25.502-21.411,34.828-35.116
			c9.332-13.699,13.992-28.07,13.992-43.105c0-12.564-4.521-23.319-13.564-32.264c-9.041-8.947-19.748-13.418-32.117-13.418H45.679
			c-14.655,0-25.933,4.948-33.832,14.844C3.949,79.562,0,91.934,0,106.779c0,11.991,5.236,24.985,15.703,38.974
			C26.169,159.743,37.307,170.736,49.106,178.729z"/>
		<path fill="#47484A" d="M483.073,209.275c-62.424,42.251-109.824,75.087-142.178,98.501c-10.85,7.991-19.65,14.229-26.408,18.699
			c-6.76,4.473-15.749,9.041-26.98,13.701c-11.229,4.669-21.692,6.996-31.401,6.996h-0.291h-0.287
			c-9.707,0-20.177-2.327-31.405-6.996c-11.228-4.66-20.223-9.229-26.98-13.701c-6.755-4.471-15.559-10.708-26.407-18.699
			c-25.697-18.842-72.995-51.68-141.896-98.501C17.987,202.047,8.375,193.762,0,184.437v226.685c0,12.57,4.471,23.32,13.418,32.266
			c8.945,8.949,19.701,13.422,32.264,13.422h420.266c12.561,0,23.314-4.473,32.262-13.422c8.949-8.949,13.418-19.693,13.418-32.266
			V184.437C503.442,193.569,493.926,201.854,483.073,209.275z"/>
	</g>
</g>
</svg>
