<?xml version="1.0" encoding="utf-8"?>
<!-- Generator: Adobe Illustrator 15.0.0, SVG Export Plug-In . SVG Version: 6.00 Build 0)  -->
<!DOCTYPE svg PUBLIC "-//W3C//DTD SVG 1.1//EN" "http://www.w3.org/Graphics/SVG/1.1/DTD/svg11.dtd">
<svg version="1.1" id="Capa_1" xmlns="http://www.w3.org/2000/svg" xmlns:xlink="http://www.w3.org/1999/xlink" x="0px" y="0px"
	 width="612px" height="792px" viewBox="0 0 612 792" enable-background="new 0 0 612 792" xml:space="preserve">
<g id="worpress_1_">
	<g>
		<path fill="#47484A" d="M0,396.002c0,121.082,70.383,225.776,172.475,275.369L26.496,271.509C9.507,309.523,0,351.65,0,396.002z"
			/>
	</g>
	<g>
		<path fill="#47484A" d="M311.383,422.738l-91.84,266.769c27.41,8.027,56.442,12.473,86.438,12.473
			c35.641,0,69.833-6.175,101.629-17.343c-0.795-1.326-1.561-2.734-2.194-4.243L311.383,422.738z"/>
	</g>
	<g>
		<path fill="#47484A" d="M512.563,380.529c0-37.812-13.618-63.985-25.239-84.347c-15.51-25.217-30.056-46.543-30.056-71.793
			c0-28.073,21.327-54.269,51.383-54.269c1.379,0,2.677,0.182,3.953,0.243C458.195,120.5,385.658,90.021,305.98,90.021
			c-106.908,0-197.602,53.969-252.847,133.726c7.172,0.262,98.42,0.643,98.42,0.643c16.496-0.924,18.446,23.299,1.98,25.25
			c0,0-16.588,1.931-35.037,2.896l111.435,331.39l66.955-200.782l-47.663-130.608c-16.484-0.966-32.079-1.368-32.079-1.368
			c-16.485-0.966-14.557-23.72,1.91-23.72H381.23c16.486,0,18.42,21.768,1.932,23.72c0,0-16.588,1.165-35.005,2.132l110.6,328.514
			l30.499-102.161C504.789,439.89,512.563,406.743,512.563,380.529z"/>
	</g>
	<g>
		<path fill="#47484A" d="M574.499,249.196c1.318,9.779,2.071,20.241,2.071,31.487c0,31.032-5.812,65.917-23.296,109.563
			l-93.45,270.201C550.82,607.414,612,508.875,612,396.002C612,342.798,598.399,292.784,574.499,249.196z"/>
	</g>
</g>
</svg>
