<?xml version="1.0" encoding="utf-8"?>
<!-- Generator: Adobe Illustrator 15.0.0, SVG Export Plug-In . SVG Version: 6.00 Build 0)  -->
<!DOCTYPE svg PUBLIC "-//W3C//DTD SVG 1.1//EN" "http://www.w3.org/Graphics/SVG/1.1/DTD/svg11.dtd">
<svg version="1.1" id="Layer_1" xmlns="http://www.w3.org/2000/svg" xmlns:xlink="http://www.w3.org/1999/xlink" x="0px" y="0px"
	 width="612px" height="792px" viewBox="0 0 612 792" enable-background="new 0 0 612 792" xml:space="preserve">
<g id="Layer_1_1_">
</g>
<g id="Layer_3">
</g>
<g id="Layer_4">
</g>
<g id="Layer_2">
	<g>
		
			<rect x="291.263" y="378.537" transform="matrix(-0.9482 0.3176 -0.3176 -0.9482 732.6519 676.1658)" fill="#47484A" width="39.893" height="38.533"/>
		<g>
			
				<rect x="291.263" y="378.537" transform="matrix(-0.9482 0.3176 -0.3176 -0.9482 732.6519 676.1658)" fill="#47484A" width="39.893" height="38.533"/>
			<path fill="#47484A" d="M441.094,358.6c-29.24-97.467-71.4-120.133-168.867-90.894c-97.467,29.24-120.133,71.4-90.893,168.867
				c29.24,97.467,71.4,120.134,168.867,90.894S470.333,456.066,441.094,358.6z M391.906,421.84l-18.359,6.12l6.347,19.04
				c2.493,7.707-1.587,16.094-9.294,18.587c-1.586,0.453-3.399,0.906-4.986,0.68c-5.894-0.227-11.56-4.08-13.6-9.974l-6.347-19.04
				l-37.854,12.693l6.347,19.04c2.493,7.707-1.587,16.094-9.293,18.587c-1.587,0.453-3.4,0.907-4.987,0.68
				c-5.893-0.227-11.56-4.08-13.6-9.973l-6.347-19.04l-18.36,6.12c-1.586,0.453-3.4,0.906-4.987,0.68
				c-5.893-0.227-11.56-4.08-13.6-9.974c-2.494-7.706,1.586-16.093,9.293-18.586l18.36-6.12l-12.24-36.494l-18.36,6.12
				c-1.587,0.454-3.4,0.907-4.987,0.681c-5.893-0.227-11.56-4.08-13.6-9.974c-2.493-7.707,1.587-16.093,9.293-18.586l18.36-6.12
				l-6.347-19.04c-2.493-7.707,1.587-16.093,9.293-18.587c7.707-2.493,16.093,1.587,18.587,9.293l6.347,19.04L314.84,345
				l-6.347-19.04c-2.493-7.707,1.587-16.093,9.294-18.586c7.706-2.494,16.093,1.586,18.586,9.293l6.347,19.04l18.36-6.12
				c7.707-2.494,16.093,1.586,18.587,9.293c2.493,7.707-1.587,16.094-9.294,18.587l-18.359,6.12l12.239,36.493l18.36-6.12
				c7.707-2.493,16.094,1.587,18.587,9.294C403.693,410.96,399.613,419.347,391.906,421.84z"/>
		</g>
	</g>
</g>
</svg>
